<svg width="64" height="64" viewBox="0 0 64 64" xmlns="http://www.w3.org/2000/svg">
  <defs>
    <linearGradient id="bg" x1="0" y1="0" x2="1" y2="1">
      <stop offset="0%"  stop-color="#1c3128"/>
      <stop offset="100%" stop-color="#0d1812"/>
    </linearGradient>
    <linearGradient id="g" x1="0" y1="0" x2="0" y2="1">
      <stop offset="0%"  stop-color="#fff2c8"/>
      <stop offset="100%" stop-color="#c39a52"/>
    </linearGradient>
  </defs>
  <rect width="64" height="64" rx="14" fill="url(#bg)"/>
  <circle cx="32" cy="32" r="26" fill="none" stroke="url(#g)" stroke-width="1.4" opacity="0.65"/>
  <!-- Serving dome -->
  <g transform="translate(32 19)" fill="url(#g)">
    <path d="M-9 3 Q-9 -5 0 -5 Q9 -5 9 3 Z"/>
    <rect x="-10" y="3" width="20" height="1.6" rx="0.8"/>
  </g>
  <!-- Serif M monogram -->
  <path d="M19 49 L19 27 L17 27 L17 25 L24 25 L32 41 L40 25 L47 25 L47 27 L45 27 L45 49 L47 49 L47 51 L39 51 L39 49 L41 49 L41 30 L33 47 L31 47 L23 30 L23 49 L25 49 L25 51 L17 51 L17 49 Z" fill="url(#g)"/>
</svg>
