<svg width="64" height="64" viewBox="0 0 64 64" xmlns="http://www.w3.org/2000/svg">
  <defs>
    <radialGradient id="bg" cx="50%" cy="35%" r="65%">
      <stop offset="0%"  stop-color="#234b3a"/>
      <stop offset="100%" stop-color="#0a1c12"/>
    </radialGradient>
    <linearGradient id="g" x1="0" y1="0" x2="0" y2="1">
      <stop offset="0%"  stop-color="#fff2c8"/>
      <stop offset="60%" stop-color="#f0c97a"/>
      <stop offset="100%" stop-color="#a17326"/>
    </linearGradient>
    <style>
      .ring { transform-origin: 32px 32px; animation: f-spin 24s linear infinite; }
      @keyframes f-spin { to { transform: rotate(360deg); } }
      @media (prefers-reduced-motion: reduce) { .ring { animation: none; } }
    </style>
  </defs>
  <rect width="64" height="64" rx="14" fill="url(#bg)"/>
  <g class="ring">
    <circle cx="32" cy="32" r="26" fill="none" stroke="url(#g)" stroke-width="0.8" stroke-dasharray="2 3" opacity="0.7"/>
  </g>
  <circle cx="32" cy="32" r="23" fill="none" stroke="url(#g)" stroke-width="1.2"/>
  <!-- M monogram -->
  <path fill="url(#g)" d="M19 49 L19 27 L17 27 L17 25 L24 25 L32 41 L40 25 L47 25 L47 27 L45 27 L45 49 L47 49 L47 51 L39 51 L39 49 L41 49 L41 30 L33 47 L31 47 L23 30 L23 49 L25 49 L25 51 L17 51 L17 49 Z"/>
  <circle cx="32" cy="20" r="1.2" fill="#fff2c8"/>
</svg>
